# xmcd
#
# Track frame offsets:
# 150
# 14235
# 27885
# 42725
# 56615
# 69557
# 82835
# 96612
# 109055
# 122102
# 135395
# 148757
# 165050
# 177637
# 189060
# 202542
# 215085
# 230272
# 243825
# 257855
# 270535
# 283212
# 294995
# 306687
# 320490
# 331330
# 346777
#
# Disc length: 4806 seconds
#
#
# Revision: 0
# Processed by: cddbd v1.4PL0 Copyright (c) Steve Scherf et al.
# Submitted via: FreeRIP 2.00 
#
DISCID=9512c41b
DTITLE=Ernest Tubb - Walking The Floor Over You - Disc 3
DYEAR=1996
DGENRE=Country
TTITLE0=Those Simple Things Are Worth A Million Now (1944)
TTITLE1=Answer To 'Walking The Floor Over You' (1944)
TTITLE2=You Won't Ever Forget Me (1944)
TTITLE3=Keep My Mem'ry In Your Heart (1944)
TTITLE4=I Lost My Ace Of Hearts (1944)
TTITLE5=Though The Days Were Only Seven (1944)
TTITLE6=With Tears In My Eyes (false starts) (1944)
TTITLE7=With Tears In My Eyes (1944)
TTITLE8=Are You Waiting Just For Me (1944)
TTITLE9=I'll Get Along Somehow (1944)
TTITLE10=Blue Eyed Elaine (1944)
TTITLE11=You'll Love Me Too Late (1944)
TTITLE12=I'll Never Lose You Though You're Gone (1944)
TTITLE13=I'm Too Blue To Worry Over You (1944)
TTITLE14=There's Nothing More To Say (1944)
TTITLE15=I Hate To See You Go (1944)
TTITLE16=I'll Always Be Glad To Take You Back (1944)
TTITLE17=Too Late To Worry, Too Blue To Cry (1944)
TTITLE18=I'm Wondering How (1944)
TTITLE19=Last Night I Dreamed (1944)
TTITLE20=This Time We're Really Through (1944)
TTITLE21=You May Have Your Picture (1944)
TTITLE22=I Ain't Goin' Honky Tonkin' Anymore (1944)
TTITLE23=Walking The Floor Over You (1944)
TTITLE24=Have You Changed Your Mind (1944)
TTITLE25=Just Rollin' On (1944)
TTITLE26=You Nearly Lose Your Mind (1944)
EXTD=
EXTT0=
EXTT1=
EXTT2=
EXTT3=
EXTT4=
EXTT5=
EXTT6=
EXTT7=
EXTT8=
EXTT9=
EXTT10=
EXTT11=
EXTT12=
EXTT13=
EXTT14=
EXTT15=
EXTT16=
EXTT17=
EXTT18=
EXTT19=
EXTT20=
EXTT21=
EXTT22=
EXTT23=
EXTT24=
EXTT25=
EXTT26=
PLAYORDER=
